<svg width="175" height="45" viewBox="0 0 175 45" fill="none" xmlns="http://www.w3.org/2000/svg">
<path d="M143.112 36.0445C142.889 35.8955 142.626 35.8161 142.358 35.8161H4.53368C2.78096 35.8161 1.3601 34.3952 1.3601 32.6425V4.53368C1.3601 2.78096 2.78096 1.3601 4.53368 1.3601H170.466C172.219 1.3601 173.64 2.78096 173.64 4.53368V32.6425C173.64 34.3952 172.219 35.8161 170.466 35.8161H163.212C162.925 35.8161 162.645 35.9071 162.412 36.0762L154.992 41.4726C153.919 42.2529 152.468 42.2817 151.361 41.5438L143.112 36.0445Z" fill="#FFD449" stroke="#14142A" stroke-width="2.72021" stroke-linecap="round" stroke-linejoin="round"/>
<path d="M29.1026 11.3782V26.7202H24.8373V18.2549L21.943 26.7202H18.3741L15.458 18.1896V26.7202H11.1927V11.3782H16.3502L20.202 21.3451L23.9668 11.3782H29.1026ZM37.972 14.7948V17.2974H42.8683V20.5399H37.972V23.3036H43.5212V26.7202H33.7067V11.3782H43.5212V14.7948H37.972ZM55.5739 26.7202L52.5273 21.0622H52.0703V26.7202H47.805V11.3782H54.5294C55.7625 11.3782 56.8071 11.5958 57.663 12.0311C58.519 12.4518 59.1646 13.0394 59.5998 13.7938C60.035 14.5337 60.2527 15.3679 60.2527 16.2964C60.2527 17.3409 59.9625 18.2622 59.3822 19.0601C58.8164 19.8435 57.9822 20.4021 56.8796 20.7357L60.3397 26.7202H55.5739ZM52.0703 18.1461H54.1812C54.7615 18.1461 55.1967 18.0083 55.4869 17.7326C55.777 17.457 55.9221 17.058 55.9221 16.5357C55.9221 16.0425 55.7698 15.658 55.4651 15.3824C55.1749 15.0922 54.747 14.9471 54.1812 14.9471H52.0703V18.1461ZM73.4431 26.7202L68.6338 19.9958V26.7202H64.3685V11.3782H68.6338V17.9938L73.3996 11.3782H78.3177L72.6815 18.8207L78.6006 26.7202H73.4431ZM92.0403 24.2176H86.5999L85.773 26.7202H81.2901L86.8828 11.3782H91.8009L97.3719 26.7202H92.8673L92.0403 24.2176ZM90.974 20.9533L89.3201 15.9917L87.688 20.9533H90.974ZM107.01 11.3782C108.62 11.3782 110.027 11.7046 111.232 12.3575C112.45 12.9958 113.386 13.8953 114.039 15.0559C114.692 16.2166 115.018 17.544 115.018 19.0383C115.018 20.5181 114.684 21.8383 114.017 22.9989C113.364 24.1596 112.428 25.0736 111.21 25.7409C110.006 26.3938 108.606 26.7202 107.01 26.7202H100.938V11.3782H107.01ZM106.683 22.9554C107.931 22.9554 108.91 22.6145 109.621 21.9326C110.332 21.2508 110.688 20.286 110.688 19.0383C110.688 17.7761 110.332 16.8041 109.621 16.1223C108.91 15.4259 107.931 15.0777 106.683 15.0777H105.204V22.9554H106.683ZM123.382 11.3782V26.7202H119.117V11.3782H123.382ZM139.543 11.3782V14.773H135.452V26.7202H131.186V14.773H127.139V11.3782H139.543Z" fill="#14142A"/>
<path d="M163.212 19.0664C163.212 23.2776 159.384 28.7413 156.063 32.6061C154.564 34.3498 151.935 34.3262 150.469 32.5544C147.42 28.8671 143.264 23.027 143.264 19.0664C143.264 13.5441 147.73 9.06735 153.238 9.06735C158.747 9.06735 163.212 13.5441 163.212 19.0664Z" fill="#A1CF6B"/>
<mask id="mask0" mask-type="alpha" maskUnits="userSpaceOnUse" x="153" y="9" width="11" height="26">
<path d="M153.238 9.06735H163.212V34.0026H153.238V9.06735Z" fill="#C4C4C4"/>
</mask>
<g mask="url(#mask0)">
<path d="M163.212 19.0664C163.212 23.2776 159.384 28.7413 156.063 32.6061C154.564 34.3498 151.935 34.3262 150.469 32.5544C147.42 28.8671 143.264 23.027 143.264 19.0664C143.264 13.5441 147.73 9.06735 153.238 9.06735C158.747 9.06735 163.212 13.5441 163.212 19.0664Z" fill="#8AC926"/>
</g>
<path fill-rule="evenodd" clip-rule="evenodd" d="M158.724 24.7189C160.029 22.46 160.719 20.5071 160.719 19.0664C160.719 14.9153 157.364 11.5609 153.238 11.5609C149.113 11.5609 145.758 14.9153 145.758 19.0664C145.758 20.3345 146.485 22.2887 147.873 24.6494C149.201 26.9083 150.912 29.1771 152.391 30.9652C152.87 31.5448 153.679 31.5536 154.172 30.9808C155.774 29.1162 157.456 26.9135 158.724 24.7189ZM156.063 32.6061C159.384 28.7413 163.212 23.2776 163.212 19.0664C163.212 13.5441 158.747 9.06735 153.238 9.06735C147.73 9.06735 143.264 13.5441 143.264 19.0664C143.264 23.027 147.42 28.8671 150.469 32.5544C151.935 34.3262 154.564 34.3498 156.063 32.6061Z" fill="#14142A"/>
<path d="M158.225 19.0414C158.225 21.7957 155.993 24.0285 153.238 24.0285C150.484 24.0285 148.251 21.7957 148.251 19.0414C148.251 16.2872 150.484 14.0544 153.238 14.0544C155.993 14.0544 158.225 16.2872 158.225 19.0414Z" fill="#99621E"/>
<mask id="mask1" mask-type="alpha" maskUnits="userSpaceOnUse" x="153" y="14" width="6" height="11">
<path d="M153.238 14.0544H158.225V24.0285H153.238V14.0544Z" fill="#895737"/>
</mask>
<g mask="url(#mask1)">
<path d="M158.225 19.0414C158.225 21.7957 155.993 24.0285 153.238 24.0285C150.484 24.0285 148.251 21.7957 148.251 19.0414C148.251 16.2872 150.484 14.0544 153.238 14.0544C155.993 14.0544 158.225 16.2872 158.225 19.0414Z" fill="#895737"/>
</g>
<path fill-rule="evenodd" clip-rule="evenodd" d="M153.238 21.535C154.615 21.535 155.732 20.4186 155.732 19.0414C155.732 17.6643 154.615 16.5479 153.238 16.5479C151.861 16.5479 150.745 17.6643 150.745 19.0414C150.745 20.4186 151.861 21.535 153.238 21.535ZM153.238 24.0285C155.993 24.0285 158.225 21.7957 158.225 19.0414C158.225 16.2872 155.993 14.0544 153.238 14.0544C150.484 14.0544 148.251 16.2872 148.251 19.0414C148.251 21.7957 150.484 24.0285 153.238 24.0285Z" fill="#14142A"/>
</svg>
